<?xml version="1.0" encoding="UTF-8"?><svg id="Capa_2" xmlns="http://www.w3.org/2000/svg" viewBox="0 0 790.98 469.92"><defs><style>.cls-1{fill:#e8c327;}.cls-2{fill:#ff80ab;}</style></defs><g id="Capa_1-2"><g><path class="cls-1" d="M553.8,432.27H19.31c-10.64,0-19.31-10.09-19.31-22.5s8.67-22.51,19.31-22.51H532.21c.74,2.47,1.57,5.02,2.51,7.7,1.24,3.47,2.57,6.83,3.93,9.95,4.14,9.65,9.23,18.84,15.16,27.37Z"/><g><polygon class="cls-2" points="679.46 224.77 679.45 224.75 679.45 224.33 679.46 224.77"/><path class="cls-1" d="M790.42,293.99c-.29-17.86-.6-33.84-.98-48.81-.12-4.38-.15-8.81-.18-13.07v-.38c-.08-14.8-.14-28.77-3.46-42.18-9.97-40.17-33.2-68.07-71-85.3-19.56-8.9-41.89-11.95-68.31-9.31-22.43,2.25-41.51,9.17-58.33,21.16-1.74,1.24-3.52,2.58-5.3,4.02-1.51,1.19-3.02,2.46-4.53,3.79l-.32,.29c-4.49,3.97-8.9,8.49-13.13,13.44-1.28,1.5-2.52,3.02-3.81,4.67-2.04,2.58-3.78,4.96-5.35,7.3-1.51,2.18-2.96,4.47-4.49,7.07-10.11,17.23-15.2,35.77-15.58,56.7-.33,19.1,.11,38.7,.53,57.67,.18,7.71,.33,15.43,.47,23.14,.11,6.63,.11,13.31,.09,19.07v.68c0,11.8,0,24.01,.79,35.77,.15,2.43,.32,4.56,.5,6.54l.03,.41c.11,1.15,.23,2.28,.38,3.43,.11,.97,.21,1.83,.33,2.71,.3,2.22,.65,4.47,1.12,6.98,.62,3.26,1.28,6.24,2.01,9.07,.11,.39,.21,.8,.33,1.19,.62,2.31,1.31,4.59,2.04,6.8t.01,.03c.73,2.24,1.54,4.44,2.46,6.77,.18,.47,.36,.94,.56,1.41,1.1,2.63,2.28,5.21,3.51,7.62,3.82,7.65,8.52,14.89,13.99,21.57,1.83,2.21,3.58,4.19,5.32,6.03,.62,.65,1.25,1.33,1.93,2.01,1.18,1.19,2.45,2.45,3.87,3.78,1.09,1.03,2.22,2.04,3.37,3.02,2.67,2.36,5.52,4.62,8.48,6.8,3.37,2.51,6.92,4.91,10.61,7.19,23.76,14.28,51.04,19.42,83.32,15.67,37.81-4.38,66.74-21.91,88.41-53.59,14.22-20.81,21.05-43.55,20.89-69.53-.11-16.52-.29-33.4-.56-51.62Zm-96.51-14.4c0,10.7-3.34,19.09-9.94,24.92-1.71,1.51-3.49,2.75-5.44,3.82-1.78,.95-3.42,1.69-4.93,2.25-1.1,.41-2.24,.77-3.4,1.09l-.29,.08c-2.37,.57-4.73,.86-7.06,.86-2.12,0-4.22-.24-6.27-.73-3.45-.79-6.74-2.24-9.78-4.32-.17-.12-.33-.23-.5-.32l-.41-.26c-3.2-2.13-5.88-4.81-7.95-7.96-1.93-2.87-3.37-6.27-4.25-10.03-.59-2.55-.77-4.7-.86-5.98l-.03-.24c-.09-1.31-.15-2.69-.18-4.61l-.33-21.99c-.35-22.76-.7-46.94-.94-70.53l-.05-4.25c-.02-2.09,.15-4.25,.51-6.38,.17-.85,.32-1.62,.5-2.37,.71-2.89,1.75-5.53,3.11-7.95,.23-.41,.5-.88,.82-1.33,1.13-1.8,2.4-3.4,3.78-4.76,5.43-5.5,12.97-8.58,21.23-8.64,17.05-.08,30.72,13.65,31.01,31.33,.31,19.28,1.1,38.71,1.1,58.08,0,2.35,.02,4.69,.03,7.04,.05,2.27,.09,4.64,.12,7.01l.36,25.07c0,.21,.02,.42,.02,.63v.47Z"/></g><path class="cls-1" d="M664.98,93.96c-.9-4.29-.34-8.49,1.24-12.69s4.15-8.16,6.75-11.85c5.74-8.18,12.45-15.82,16.25-25.18,1.94-4.78,2.91-9.93,2.26-15.09-.68-5.36-2.76-10.49-5.94-14.86-6.38-8.74-16.91-15.04-27.99-14.22-11.45,.85-20.92,8.11-28.25,16.45-7.65,8.7-13.38,18.88-21.15,27.48-7.18,7.94-16.51,15.23-27.76,14.83-5.91-.21-11.49-2.59-16.71-5.18-5.68-2.81-11.22-5.99-17.23-8.06-19.98-6.85-44,.58-57.14,16.99-1.64,2.05-3.12,4.19-4.42,6.47-1.59,2.8,2.73,5.32,4.32,2.52,9.82-17.3,31.55-26.76,50.96-22.54,11.61,2.53,21.06,10.45,32.45,13.57,5.61,1.54,11.52,1.66,17.13,.05s10.28-4.53,14.63-8.08c8.89-7.27,15.06-16.93,21.77-26.09,6.17-8.42,13.44-17.36,23.37-21.41,4.67-1.91,9.77-2.64,14.73-1.54s9.3,3.51,12.95,6.85c7.32,6.71,11.3,16.7,8.59,26.49-2.52,9.14-8.9,16.78-14.44,24.3s-11.16,15.59-11.76,25.14c-.15,2.34,.09,4.69,.57,6.99,.28,1.32,1.83,2.09,3.08,1.75,1.37-.38,2.02-1.75,1.75-3.08h0Z"/><path class="cls-1" d="M407.44,55.21l-6.18-.57V24.29c0-8.02-6.51-14.54-14.54-14.54h-8.54c-8.01,0-14.54,6.51-14.54,14.54v29.76l-6.38,.39C196.71,64.14,66.98,190.69,52.59,350.16h471.32c-.79-12.04-.79-24.33-.79-36.23v-.7c.02-5.7,.02-12.32-.09-18.82-.14-7.68-.29-15.37-.47-23.05-.42-19.12-.86-38.85-.53-58.24,.42-23.33,6.14-44.05,17.45-63.35,1.69-2.89,3.32-5.46,4.96-7.83,1.72-2.57,3.67-5.23,5.91-8.06,1.39-1.78,2.77-3.46,4.19-5.12,4.34-5.08,8.89-9.76,13.53-13.95-45.79-32.85-100.7-54.12-160.63-59.62Zm-127.41,69.11c-1.21,1.69-4.5,2.13-6.96,2.78-38.21,10.09-69.62,30.12-94.79,59.65-2.71,3.18-7.77,6.39-11.67,6.3-8.25-.19-10.3-9.53-4.01-17.28,19.24-23.68,42.92-42.13,71.21-54.7,10.78-4.79,22.22-8.2,33.4-12.11,2.4-.84,5-1.14,9.48-2.12,1.96,2.16,5.84,4.65,6.66,7.86,.73,2.84-1.35,6.88-3.33,9.62Z"/></g></g></svg>