<?xml version="1.0" encoding="UTF-8"?><svg id="Capa_2" xmlns="http://www.w3.org/2000/svg" viewBox="0 0 484.73 326.77"><defs><style>.cls-1{fill:#2492c2;}</style></defs><g id="Capa_1-2"><g><g><path class="cls-1" d="M328.16,310.42H11.39c-6.27,0-11.39-8.52-11.39-19.01s5.11-19.01,11.39-19.01H311.63c.44,2.08,.93,4.24,1.48,6.5,.73,2.93,2.59,9.95,3.59,12.51,3.34,8.5,5.94,13.12,11.46,19.01Z"/><g><polygon class="cls-1" points="410.94 164.56 410.93 164.55 410.93 164.27 410.94 164.56"/><path class="cls-1" d="M484.36,210.36c-.19-11.82-.4-22.39-.65-32.3-.08-2.9-.1-5.83-.12-8.65v-.25c-.05-9.79-.09-19.04-2.29-27.91-6.6-26.58-21.97-45.04-46.98-56.44-12.94-5.89-27.72-7.91-45.2-6.16-14.84,1.49-27.47,6.07-38.6,14-1.15,.82-2.33,1.71-3.51,2.66-1,.79-2,1.63-3,2.51l-.21,.19c-2.97,2.63-5.89,5.62-8.69,8.89-.85,.99-1.67,2-2.52,3.09-1.35,1.71-2.5,3.28-3.54,4.83-1,1.44-1.96,2.96-2.97,4.68-6.69,11.4-10.06,23.67-10.31,37.52-.22,12.64,.07,25.61,.35,38.16,.12,5.1,.22,10.21,.31,15.31,.07,4.39,.07,8.81,.06,12.62v.45c0,7.81,0,15.89,.52,23.67,.1,1.61,.21,3.02,.33,4.33l.02,.27c.07,.76,.15,1.51,.25,2.27,.07,.64,.14,1.21,.22,1.79,.2,1.47,.43,2.96,.74,4.62,.41,2.16,.85,4.13,1.33,6,.07,.26,.14,.53,.22,.79,.41,1.53,.87,3.04,1.35,4.5t0,.02c.48,1.48,1.02,2.94,1.63,4.48,.12,.31,.24,.62,.37,.93,.73,1.74,1.51,3.45,2.32,5.04,2.53,5.06,5.64,9.85,9.26,14.27,1.21,1.46,2.37,2.77,3.52,3.99,.41,.43,.83,.88,1.28,1.33,.78,.79,1.62,1.62,2.56,2.5,.72,.68,1.47,1.35,2.23,2,1.77,1.56,3.65,3.06,5.61,4.5,2.23,1.66,4.58,3.25,7.02,4.76,15.72,9.45,33.77,12.85,55.13,10.37,25.02-2.9,44.16-14.5,58.5-35.46,9.41-13.77,13.93-28.82,13.82-46.01-.07-10.93-.19-22.1-.37-34.16Zm-63.86-9.53c0,7.08-2.21,12.63-6.58,16.49-1.13,1-2.31,1.82-3.6,2.53-1.18,.63-2.26,1.12-3.26,1.49-.73,.27-1.48,.51-2.25,.72l-.19,.05c-1.57,.38-3.13,.57-4.67,.57-1.4,0-2.79-.16-4.15-.48-2.28-.52-4.46-1.48-6.47-2.86-.11-.08-.22-.15-.33-.21l-.27-.17c-2.12-1.41-3.89-3.18-5.26-5.27-1.28-1.9-2.23-4.15-2.81-6.64-.39-1.69-.51-3.11-.57-3.96l-.02-.16c-.06-.87-.1-1.78-.12-3.05l-.22-14.55c-.23-15.06-.46-31.06-.62-46.67l-.03-2.81c-.01-1.38,.1-2.81,.34-4.22,.11-.56,.21-1.07,.33-1.57,.47-1.91,1.16-3.66,2.06-5.26,.15-.27,.33-.58,.54-.88,.75-1.19,1.59-2.25,2.5-3.15,3.59-3.64,8.58-5.68,14.05-5.72,11.28-.05,20.33,9.03,20.52,20.73,.21,12.75,.73,25.61,.73,38.43,0,1.55,.01,3.11,.02,4.66,.03,1.5,.06,3.07,.08,4.64l.24,16.59c0,.14,.01,.28,.01,.42v.31Z"/></g><path class="cls-1" d="M400.84,78.09c-.56-2.7-.18-5.3,.83-7.99s2.78-5.36,4.49-7.77c3.87-5.48,8.31-10.61,10.81-16.92,2.69-6.79,1.71-14.3-2.6-20.21-4.32-5.94-11.37-10.26-18.91-9.88-16.45,.85-23.71,18.07-33.16,28.79-4.66,5.29-10.74,10.35-18.2,10.11-3.9-.13-7.57-1.75-11.01-3.47-3.73-1.86-7.39-3.93-11.35-5.28-13.45-4.58-29.69,.41-38.54,11.44-1.14,1.42-2.18,2.9-3.09,4.49-1.6,2.8,2.72,5.32,4.32,2.52,6.4-11.23,20.57-17.36,33.17-14.43,7.64,1.77,13.88,7.05,21.46,8.99,7.81,2,15.18-.58,21.29-5.52,5.85-4.73,9.96-11.06,14.34-17.08,4.02-5.53,8.71-11.43,15.17-14.2,6.13-2.62,12.8-1.21,17.66,3.27s7.19,10.74,5.33,17.03c-3.51,11.92-16.56,19.64-17.27,32.7-.09,1.58,.09,3.17,.41,4.72,.27,1.32,1.83,2.09,3.08,1.75,1.37-.38,2.02-1.75,1.75-3.08h0Z"/><path class="cls-1" d="M241.59,53.34l-.03-23.93c0-3.76-2.89-6.81-6.46-6.81h-29.75c-3.58,0-6.48,3.08-6.46,6.87l.14,23.08C98.51,58.96,37.49,142.33,28.48,247.85H308.25c-.49-7.97-.49-16.1-.49-23.97v-.46c0-3.77,0-8.15-.06-12.45-.09-5.08-.18-10.17-.29-15.25-.27-12.65-.54-25.71-.33-38.54,.26-15.44,3.84-29.15,10.93-41.92,1.06-1.91,2.08-3.61,3.1-5.18,1.08-1.7,2.3-3.46,3.7-5.33,.87-1.18,1.73-2.29,2.62-3.39,2.72-3.36,5.56-6.46,8.47-9.23-28.67-21.74-56.78-35.15-94.31-38.79Zm-92.93,37.37c-.55,1.26-2.62,2-4.13,2.76-23.35,11.78-40.93,29.06-53.16,51.63-1.32,2.43-4.15,5.21-6.69,5.68-5.37,1.01-7.98-4.76-4.97-10.64,9.2-17.97,22-33.16,38.58-45.19,6.32-4.58,13.25-8.36,19.96-12.43,.63-.38,1.3-.7,2.09-1.05,2.63-1.15,5.75-.81,7.93,1.06,.51,.44,.94,.93,1.22,1.49,.86,1.74,.07,4.64-.83,6.68Z"/></g><path class="cls-1" d="M215.68,0h8.37c6.03,0,10.93,4.9,10.93,10.93v11.66h-30.24V10.93c0-6.03,4.9-10.93,10.93-10.93Z"/></g></g></svg>