<?xml version="1.0" encoding="UTF-8"?>
<svg id="Capa_2" xmlns="http://www.w3.org/2000/svg" viewBox="0 0 828.04 554.64">
    <defs>
        <style>.cls-1{fill:#e8c327;}.cls-2{fill:#ff80ab;}</style>
    </defs>
    <g id="Capa_1-2">
        <g>
            <path class="cls-1"
                d="M617.38,429.01c0-4.15,.85-8.11,2.54-11.9,1.69-3.79,4.13-7.13,7.31-10.03,3.18-2.9,7.08-5.22,11.69-6.95s9.86-2.59,15.74-2.59,11.1,.87,15.79,2.62c4.68,1.75,8.66,4.14,11.92,7.18,3.27,3.04,5.77,6.62,7.52,10.73,1.74,4.11,2.62,8.52,2.62,13.22,0,.59,0,1.22-.03,1.89s-.06,1.29-.13,1.84h-57.86c.66,1.83,1.72,3.51,3.19,5.03,1.47,1.52,3.31,2.83,5.52,3.94s4.77,1.96,7.67,2.57,6.12,.91,9.64,.91,7.03-.37,10.53-1.12c3.49-.74,6.83-1.68,10.01-2.83l5.19,11.72c-2.01,.93-4.04,1.75-6.09,2.46-2.06,.71-4.2,1.3-6.43,1.76s-4.56,.82-7,1.06-5,.36-7.7,.36c-6.88,0-12.91-.83-18.1-2.49-5.18-1.66-9.52-3.92-13.01-6.79-3.49-2.87-6.12-6.24-7.88-10.11-1.76-3.87-2.64-8.04-2.64-12.5Zm58.85-5.96c-.55-1.69-1.41-3.27-2.57-4.74-1.16-1.47-2.6-2.75-4.33-3.84s-3.73-1.94-6.01-2.57-4.79-.93-7.52-.93c-2.9,0-5.55,.33-7.93,.99-2.39,.66-4.48,1.54-6.27,2.64-1.8,1.11-3.29,2.38-4.48,3.84-1.19,1.45-2.07,2.99-2.62,4.61h41.74Z" />
            <path class="cls-1"
                d="M711.44,441.04c4.15,2.49,8.71,4.32,13.69,5.5,4.98,1.18,10.08,1.76,15.3,1.76,3.53,0,6.46-.24,8.81-.73,2.35-.48,4.23-1.11,5.65-1.87,1.42-.76,2.42-1.62,3.01-2.59,.59-.97,.88-1.95,.88-2.96,0-1.45-.63-2.7-1.89-3.73-1.26-1.04-3.34-1.56-6.25-1.56-1.35,0-2.8,.09-4.36,.26s-3.19,.35-4.9,.54c-1.71,.19-3.49,.37-5.34,.54-1.85,.17-3.72,.26-5.62,.26-4.15,0-7.68-.45-10.6-1.35-2.92-.9-5.3-2.13-7.13-3.68-1.83-1.56-3.16-3.4-3.99-5.52-.83-2.13-1.25-4.42-1.25-6.87,0-3.11,.73-5.98,2.18-8.61,1.45-2.63,3.53-4.9,6.22-6.82,2.7-1.92,5.95-3.41,9.77-4.49,3.82-1.07,8.08-1.61,12.78-1.61,2.45,0,5.02,.15,7.7,.44s5.31,.68,7.91,1.17c2.59,.48,5.08,1.05,7.47,1.69,2.39,.64,4.49,1.32,6.33,2.05l-4.82,11.92c-3.91-1.45-7.8-2.6-11.69-3.45s-7.89-1.27-12-1.27c-2.87,0-5.3,.22-7.29,.65-1.99,.43-3.6,1-4.85,1.71-1.24,.71-2.15,1.52-2.72,2.44s-.86,1.88-.86,2.88c0,.73,.15,1.38,.44,1.97,.29,.59,.78,1.1,1.45,1.53,.67,.43,1.56,.76,2.64,.99,1.09,.23,2.43,.34,4.02,.34,1.45,0,2.99-.09,4.61-.26,1.62-.17,3.32-.35,5.08-.54,1.76-.19,3.59-.37,5.47-.54s3.81-.26,5.78-.26c3.66,0,6.87,.43,9.62,1.3s5.02,2.07,6.82,3.63c1.8,1.56,3.14,3.39,4.04,5.5,.9,2.11,1.35,4.41,1.35,6.9,0,3.21-.74,6.21-2.23,8.97-1.49,2.77-3.7,5.16-6.64,7.18-2.94,2.02-6.59,3.6-10.97,4.74s-9.43,1.71-15.17,1.71c-3.53,0-6.93-.22-10.21-.65-3.28-.43-6.41-1.02-9.38-1.76-2.97-.74-5.76-1.62-8.37-2.62-2.61-1-4.99-2.07-7.13-3.21l6.64-11.61Z" />
            <path class="cls-1"
                d="M797.92,410.14h-14.78v-11.51h14.78v-19.03h15.35v19.03h14.78v11.51h-14.78v49.67h-15.35v-49.67Z" />
            <path class="cls-1"
                d="M592.65,429.45c2.28-1.78,4.17-3.81,5.68-6.09,1.5-2.28,2.62-4.78,3.34-7.49s1.09-5.57,1.09-8.58c0-4.46-.73-8.45-2.2-11.98-1.47-3.53-3.71-6.51-6.71-8.97-3.01-2.45-6.79-4.33-11.35-5.62-4.56-1.3-9.96-1.94-16.18-1.94h-41.22v75.75h-.01v5.29h16.45v-23.07l24.89,.05h.47l15.24,23.02h20.12l-17.63-25.92c3.08-1.17,5.76-2.65,8.04-4.43Zm-11.9-11.07c-1.57,1.31-3.53,2.33-5.86,3.06-2.33,.73-5.05,1.09-8.17,1.09h-25.2v-29.45h25.2c6.26,0,10.94,1.24,14.05,3.71,3.11,2.47,4.67,5.97,4.67,10.5,0,2.32-.39,4.42-1.17,6.3-.78,1.88-1.95,3.48-3.53,4.8Z" />
            <g>
                <g>
                    <path class="cls-1"
                        d="M36.84,517.75h.33c1.47,0,2.91,.35,4.32,1.06,.45,.24,.89,.53,1.33,.85,.22,.15,.57,.45,1.04,.89,.5,.54,.86,.98,1.08,1.31,.19,.28,.37,.57,.52,.85l-3.36,1.66c-.1-.23-.35-.57-.73-1-1.18-1.26-2.65-1.89-4.4-1.89s-3.12,.51-4.19,1.52c-.4,.44-.65,.79-.75,1.04-.31,.59-.46,1.2-.46,1.83v.14c0,.89,.33,1.58,.98,2.06,.3,.23,.58,.42,.85,.56,.67,.36,1.66,.73,2.97,1.1,.98,.28,2.15,.57,3.53,.87,.77,.22,1.41,.45,1.93,.69,.5,.24,1.02,.57,1.56,.98,.48,.4,.89,.82,1.25,1.27,1.02,1.38,1.52,2.9,1.52,4.57v.1c0,1.65-.5,3.21-1.49,4.69-.17,.27-.47,.64-.91,1.1-.59,.54-1.08,.93-1.47,1.16-.41,.26-.86,.49-1.35,.69-1.35,.57-2.75,.85-4.19,.85-2.23,0-4.26-.66-6.12-1.97-.33-.26-.68-.55-1.04-.89-.51-.51-.88-.91-1.08-1.2-.4-.54-.71-1.02-.93-1.43-.23-.44-.36-.7-.39-.79l3.38-1.56c.21,.46,.49,.94,.85,1.43,.17,.24,.42,.53,.77,.87,.5,.45,.91,.76,1.22,.93,1.04,.58,2.13,.87,3.28,.87h.14c1.14,0,2.24-.28,3.28-.85,.28-.17,.58-.39,.89-.66,.35-.35,.6-.66,.77-.95,.44-.76,.66-1.54,.66-2.35,0-1.31-.55-2.37-1.66-3.16-.32-.21-.61-.36-.87-.46-.45-.21-1.15-.4-2.1-.58-2.7-.62-4.67-1.25-5.9-1.89-2.73-1.35-4.09-3.39-4.09-6.13,0-1.83,.6-3.49,1.79-4.98,.39-.46,.8-.87,1.23-1.21,.53-.4,.99-.7,1.39-.91,.44-.23,.96-.44,1.58-.64,1-.3,2.01-.44,3.01-.44Z" />
                    <path class="cls-1"
                        d="M55.48,518.08h.15c.57,0,1.1,.22,1.6,.66,.5,.51,.75,1.09,.75,1.72v.12c0,.58-.22,1.12-.66,1.62-.51,.5-1.09,.75-1.72,.75h-.12c-.59,0-1.13-.22-1.62-.68-.27-.28-.45-.53-.54-.75-.14-.32-.21-.63-.21-.93v-.15c0-.59,.24-1.14,.71-1.66l.29-.25c.45-.29,.9-.44,1.35-.44Zm1.95,9.76v18.46l-.02,.02h-3.7l-.02-.02v-18.46h3.74Z" />
                    <path class="cls-1"
                        d="M73.15,526.78c2.35,0,4.35,.73,6,2.2,.37,.36,.64,.64,.79,.85l.23,.37s-.37,.26-1.04,.66c-.66,.4-1.36,.84-2.1,1.33-.23-.28-.46-.51-.69-.68-.86-.66-1.91-.98-3.14-.98h-.08c-1.35,0-2.43,.32-3.24,.96-.45,.39-.68,.8-.68,1.25,0,.28,.12,.5,.37,.66,.24,.21,.72,.43,1.43,.68,.98,.32,2.49,.66,4.55,1.02,.67,.15,1.24,.33,1.72,.54,.45,.18,.9,.42,1.35,.73,.21,.14,.5,.4,.87,.77,.94,1.03,1.41,2.19,1.41,3.47v.06c0,1.31-.49,2.54-1.47,3.68-.41,.42-.71,.69-.89,.79-.51,.36-.94,.61-1.27,.75-1.31,.6-2.71,.91-4.19,.91h-.14c-1.93,0-3.69-.51-5.29-1.52-.35-.23-.72-.53-1.12-.91-.37-.36-.63-.64-.77-.85-.26-.32-.48-.66-.68-1l3.22-1.85h.02l.15,.27c.14,.22,.37,.48,.68,.77,.58,.54,1.3,.93,2.16,1.16,.57,.13,1.13,.19,1.7,.19,1.13,0,2.14-.25,3.03-.75,.17-.09,.37-.25,.62-.48,.33-.4,.5-.8,.5-1.2,0-.71-.55-1.27-1.64-1.68-.36-.13-1.02-.27-1.99-.42-2.07-.4-3.61-.82-4.63-1.25-.44-.18-.87-.41-1.29-.69-.98-.63-1.62-1.43-1.93-2.41-.15-.44-.23-.9-.23-1.39v-.12c0-1.22,.46-2.37,1.37-3.43,.39-.4,.66-.66,.83-.77,.44-.32,.85-.58,1.23-.77,1.29-.6,2.71-.91,4.26-.91Z" />
                    <path class="cls-1"
                        d="M88.84,518.08h3.7l.02,.02v9.72h4.78l.02,.02v3.7l-.02,.02h-4.78v9.32c0,.72,.24,1.2,.73,1.45,.33,.18,.68,.27,1.04,.27,.5,0,1.22-.17,2.14-.5l.15-.08,1.39,3.49c-.31,.13-.81,.3-1.5,.5-.82,.21-1.54,.31-2.16,.31h-.04c-1.22,0-2.37-.37-3.43-1.12-.18-.13-.42-.33-.71-.62l-.33-.42c-.21-.27-.37-.53-.48-.79-.35-.78-.52-1.57-.52-2.35v-9.45h-2.74l-.02-.02v-3.7l.02-.02h2.74v-9.74Z" />
                    <path class="cls-1"
                        d="M112.1,527.55h.56c1.88,0,3.68,.75,5.42,2.26,.85,.84,1.43,1.56,1.76,2.16,.94,1.66,1.41,3.4,1.41,5.21v.58c0,.36-.03,.54-.08,.54h-13.81c.3,1.38,.78,2.4,1.47,3.09,1.04,1.12,2.22,1.68,3.55,1.68,1.67,0,3.07-.84,4.21-2.53,.22-.42,.35-.64,.39-.66,2.21,1,3.33,1.52,3.36,1.54-.18,.45-.59,1.12-1.22,2.03-1.89,2.22-4.12,3.34-6.69,3.34h-.08c-2.65,0-4.93-1.18-6.83-3.53-1.31-1.84-1.97-3.85-1.97-6.04v-.08c0-3.01,1.15-5.56,3.45-7.64,1.7-1.3,3.4-1.95,5.11-1.95Zm-4.4,7.23h9.36v-.02c-.22-.66-.72-1.4-1.5-2.24-.98-.84-2.04-1.25-3.2-1.25-1.76,0-3.21,.93-4.34,2.8l-.31,.71Z" />
                    <path class="cls-1"
                        d="M137.11,527.84h.17c2.49,0,4.51,.75,6.04,2.26,1.47-1.5,3.48-2.26,6.06-2.26h.6c3.4,0,5.8,1.28,7.21,3.84,.46,1,.69,1.99,.69,2.97v11.61l-.04,.06h-3.63l-.04-.06v-11.57c0-1.39-.77-2.35-2.31-2.88-.48-.17-1.08-.25-1.81-.25h-.75c-2.01,0-3.31,.67-3.9,2.01-.15,.36-.23,.77-.23,1.21v11.48l-.04,.06h-3.63l-.04-.06v-11.15c0-1.38-.44-2.31-1.33-2.82-.68-.49-1.61-.73-2.78-.73h-.31c-1.57,0-2.68,.24-3.34,.73-.85,.51-1.27,1.47-1.27,2.86v11.11l-.06,.06h-3.61l-.06-.06v-18.27l.06-.06h3.61l.06,.06v1.04h.02c.66-.36,1.52-.69,2.58-1,.55-.13,1.24-.19,2.06-.19Z" />
                    <path class="cls-1"
                        d="M174.91,527.55c2.15,0,3.99,.82,5.52,2.45v-2.12l.06-.04h3.65l.04,.04v18.4l-.04,.04h-3.65l-.06-.04v-1.87c-1.44,1.58-3.29,2.37-5.56,2.37h-.02c-2.82,0-5.21-1.14-7.18-3.41-1.47-1.84-2.2-3.9-2.2-6.19v-.02c0-2.83,1.09-5.27,3.28-7.33,1.81-1.52,3.86-2.28,6.15-2.28Zm-5.71,9.61c0,2.03,.87,3.7,2.62,5,.98,.59,1.9,.89,2.78,.89h.42c1.23,0,2.43-.5,3.59-1.5,1.21-1.23,1.81-2.69,1.81-4.36v-.02c0-2.06-.87-3.72-2.62-4.98-.96-.59-1.92-.89-2.85-.89h-.31c-1.54,0-2.94,.71-4.19,2.14-.84,1.18-1.25,2.42-1.25,3.72Z" />
                    <path class="cls-1"
                        d="M223.33,518.1v28.22h-3.72v-1.93c-.22,.23-.43,.44-.64,.64-.39,.32-.73,.57-1.02,.75-.39,.23-.82,.43-1.31,.6-.98,.27-1.81,.41-2.49,.41h-.25c-1.66,0-3.25-.47-4.76-1.41-.31-.18-.64-.41-1-.69-.31-.24-.71-.65-1.22-1.22-.46-.58-.82-1.11-1.08-1.6-.8-1.49-1.2-3.05-1.2-4.69,0-1.23,.22-2.43,.67-3.59,.39-1.03,1.02-2.05,1.91-3.07,.45-.45,.79-.76,1.02-.95,1.74-1.35,3.65-2.03,5.73-2.03h.02c1.8,0,3.4,.56,4.8,1.68,.33,.27,.6,.53,.79,.79h.02v-11.92l.02-.02h3.68l.02,.02Zm-5.02,15.32c-.09-.13-.32-.37-.68-.71-.39-.35-.77-.62-1.16-.81-.86-.41-1.67-.62-2.41-.62-1.67,0-3.09,.64-4.24,1.93-.96,1.17-1.45,2.48-1.45,3.93v.08c0,.88,.19,1.72,.56,2.55,.22,.48,.55,.97,.98,1.49,1.16,1.21,2.52,1.81,4.09,1.81,.77,0,1.55-.18,2.33-.54,.3-.14,.65-.37,1.06-.68l.35-.31c.31-.31,.55-.58,.71-.81,.76-1.07,1.14-2.23,1.14-3.49v-.1c0-1.39-.43-2.63-1.29-3.72Z" />
                    <path class="cls-1"
                        d="M239.09,527.55h.56c1.88,0,3.68,.75,5.42,2.26,.85,.84,1.43,1.56,1.76,2.16,.94,1.66,1.41,3.4,1.41,5.21v.58c0,.36-.03,.54-.08,.54h-13.81c.3,1.38,.78,2.4,1.47,3.09,1.04,1.12,2.22,1.68,3.55,1.68,1.67,0,3.07-.84,4.21-2.53,.22-.42,.35-.64,.39-.66,2.21,1,3.33,1.52,3.36,1.54-.18,.45-.59,1.12-1.22,2.03-1.89,2.22-4.12,3.34-6.69,3.34h-.08c-2.65,0-4.93-1.18-6.83-3.53-1.31-1.84-1.97-3.85-1.97-6.04v-.08c0-3.01,1.15-5.56,3.45-7.64,1.7-1.3,3.4-1.95,5.11-1.95Zm-4.4,7.23h9.36v-.02c-.22-.66-.72-1.4-1.5-2.24-.98-.84-2.04-1.25-3.2-1.25-1.76,0-3.21,.93-4.34,2.8l-.31,.71Z" />
                    <path class="cls-1"
                        d="M283.52,527.57h.73l.02,.02v3.7l-.02,.02h-.85c-.17,0-.32,.03-.46,.1,.6,1.02,.91,2.1,.91,3.26,0,1.38-.43,2.65-1.29,3.82-.14,.22-.43,.55-.87,.98-.81,.72-1.64,1.24-2.49,1.56-1.05,.41-2.15,.62-3.28,.62s-2.33-.23-3.45-.69c-.26,.21-.39,.38-.39,.52v.02c0,.32,.46,.55,1.39,.69,.63,.09,1.44,.13,2.43,.13l1.64-.02c2.51,0,4.5,.5,5.98,1.49,.23,.14,.54,.41,.93,.79,.35,.37,.61,.72,.79,1.04,.44,.8,.66,1.61,.66,2.43,0,1.27-.5,2.48-1.49,3.63-.44,.46-.77,.77-.98,.91-.46,.33-.87,.6-1.23,.79-.31,.17-.68,.33-1.12,.5-.39,.14-.85,.28-1.39,.42-.99,.22-1.92,.33-2.78,.33h-.56c-1.49,0-2.94-.25-4.36-.75-.59-.23-1.11-.48-1.56-.75-.33-.19-.7-.46-1.1-.79-.46-.45-.73-.74-.81-.87-.27-.36-.46-.67-.58-.93-.37-.75-.56-1.47-.56-2.18v-.31c0-.45,.1-.98,.31-1.6,.15-.4,.35-.78,.6-1.16,.15-.23,.41-.53,.75-.89l.35-.33c-.37-.57-.56-1.17-.56-1.81v-.13c0-.85,.35-1.83,1.06-2.95-.49-.54-.8-.95-.95-1.23-.14-.19-.32-.53-.52-1.02-.27-.76-.41-1.47-.41-2.14v-.25c0-1.16,.37-2.31,1.1-3.45,.18-.27,.41-.56,.69-.87,.46-.46,.78-.75,.96-.87,.45-.33,.94-.62,1.47-.87,1.18-.53,2.38-.79,3.59-.79h.21c1.45,0,2.85,.37,4.19,1.1,.3-.27,.55-.46,.75-.58,.75-.42,1.59-.64,2.55-.64Zm-12.42,20.64v.06c0,.58,.42,1.13,1.25,1.66,1.13,.66,2.52,.98,4.17,.98h.21c1.45,0,2.74-.3,3.86-.91,.27-.14,.55-.35,.85-.62,.48-.48,.71-.92,.71-1.33,0-.58-.42-1.07-1.27-1.47-.28-.13-.65-.25-1.1-.35-.76-.14-1.42-.21-1.99-.21l-2.16,.02c-.98,0-1.88-.06-2.7-.17-.24,.12-.5,.27-.77,.46-.71,.57-1.06,1.19-1.06,1.87Zm.64-13.54c0,.85,.41,1.61,1.22,2.28,.86,.66,1.84,.98,2.93,.98h.08c.96,0,1.86-.26,2.68-.79,.67-.45,1.12-1.03,1.37-1.74,.08-.26,.12-.5,.12-.73,0-.86-.41-1.63-1.23-2.3-.85-.64-1.84-.96-2.97-.96s-2.07,.31-2.93,.95c-.84,.67-1.25,1.44-1.25,2.31Z" />
                    <path class="cls-1"
                        d="M300.95,527.55h.56c1.88,0,3.68,.75,5.42,2.26,.85,.84,1.43,1.56,1.76,2.16,.94,1.66,1.41,3.4,1.41,5.21v.58c0,.36-.03,.54-.08,.54h-13.81c.3,1.38,.78,2.4,1.47,3.09,1.04,1.12,2.22,1.68,3.55,1.68,1.67,0,3.07-.84,4.21-2.53,.22-.42,.35-.64,.39-.66,2.21,1,3.33,1.52,3.36,1.54-.18,.45-.59,1.12-1.22,2.03-1.89,2.22-4.12,3.34-6.69,3.34h-.08c-2.65,0-4.93-1.18-6.83-3.53-1.31-1.84-1.97-3.85-1.97-6.04v-.08c0-3.01,1.15-5.56,3.45-7.64,1.7-1.3,3.4-1.95,5.11-1.95Zm-4.4,7.23h9.36v-.02c-.22-.66-.72-1.4-1.5-2.24-.98-.84-2.04-1.25-3.2-1.25-1.76,0-3.21,.93-4.34,2.8l-.31,.71Z" />
                    <path class="cls-1"
                        d="M324.24,526.78c2.35,0,4.35,.73,6,2.2,.37,.36,.64,.64,.79,.85l.23,.37s-.37,.26-1.04,.66c-.66,.4-1.36,.84-2.1,1.33-.23-.28-.46-.51-.69-.68-.86-.66-1.91-.98-3.14-.98h-.08c-1.35,0-2.43,.32-3.24,.96-.45,.39-.68,.8-.68,1.25,0,.28,.12,.5,.37,.66,.24,.21,.72,.43,1.43,.68,.98,.32,2.49,.66,4.55,1.02,.67,.15,1.24,.33,1.72,.54,.45,.18,.9,.42,1.35,.73,.21,.14,.5,.4,.87,.77,.94,1.03,1.41,2.19,1.41,3.47v.06c0,1.31-.49,2.54-1.47,3.68-.41,.42-.71,.69-.89,.79-.51,.36-.94,.61-1.27,.75-1.31,.6-2.71,.91-4.19,.91h-.14c-1.93,0-3.69-.51-5.29-1.52-.35-.23-.72-.53-1.12-.91-.37-.36-.63-.64-.77-.85-.26-.32-.48-.66-.68-1l3.22-1.85h.02l.15,.27c.14,.22,.37,.48,.68,.77,.58,.54,1.3,.93,2.16,1.16,.57,.13,1.13,.19,1.7,.19,1.13,0,2.14-.25,3.03-.75,.17-.09,.37-.25,.62-.48,.33-.4,.5-.8,.5-1.2,0-.71-.55-1.27-1.64-1.68-.36-.13-1.02-.27-1.99-.42-2.07-.4-3.61-.82-4.63-1.25-.44-.18-.87-.41-1.29-.69-.98-.63-1.62-1.43-1.93-2.41-.15-.44-.23-.9-.23-1.39v-.12c0-1.22,.46-2.37,1.37-3.43,.39-.4,.66-.66,.83-.77,.44-.32,.85-.58,1.23-.77,1.29-.6,2.71-.91,4.26-.91Z" />
                    <path class="cls-1"
                        d="M339.94,518.08h3.7l.02,.02v9.72h4.78l.02,.02v3.7l-.02,.02h-4.78v9.32c0,.72,.24,1.2,.73,1.45,.33,.18,.68,.27,1.04,.27,.5,0,1.22-.17,2.14-.5l.15-.08,1.39,3.49c-.31,.13-.81,.3-1.5,.5-.82,.21-1.54,.31-2.16,.31h-.04c-1.22,0-2.37-.37-3.43-1.12-.18-.13-.42-.33-.71-.62l-.33-.42c-.21-.27-.37-.53-.48-.79-.35-.78-.52-1.57-.52-2.35v-9.45h-2.74l-.02-.02v-3.7l.02-.02h2.74v-9.74Z" />
                    <path class="cls-1"
                        d="M358.25,518.08h.15c.57,0,1.1,.22,1.6,.66,.5,.51,.75,1.09,.75,1.72v.12c0,.58-.22,1.12-.66,1.62-.51,.5-1.09,.75-1.72,.75h-.12c-.59,0-1.13-.22-1.62-.68-.27-.28-.45-.53-.54-.75-.14-.32-.21-.63-.21-.93v-.15c0-.59,.24-1.14,.71-1.66l.29-.25c.45-.29,.9-.44,1.35-.44Zm1.95,9.76v18.46l-.02,.02h-3.7l-.02-.02v-18.46h3.74Z" />
                    <path class="cls-1"
                        d="M377.36,527.55c2.1,0,4.01,.67,5.75,2.03,.24,.18,.59,.5,1.04,.96,.89,.99,1.52,2.01,1.89,3.05,.45,1.16,.68,2.36,.68,3.61,0,1.62-.39,3.18-1.18,4.67-.27,.49-.64,1.02-1.1,1.6-.5,.58-.91,.98-1.22,1.22-.35,.28-.68,.52-.98,.71-1.53,.93-3.12,1.39-4.78,1.39h-.17c-1.75,0-3.43-.51-5.03-1.54-.31-.23-.59-.45-.83-.66-.5-.42-.86-.78-1.08-1.08-.27-.31-.52-.64-.75-1-.26-.41-.48-.81-.66-1.2-.6-1.34-.91-2.67-.91-3.99v-.29c0-1.44,.36-2.89,1.08-4.34,.21-.4,.45-.8,.73-1.21,.22-.31,.55-.7,.98-1.18,.63-.58,1.08-.95,1.35-1.12,1.58-1.08,3.31-1.62,5.19-1.62Zm-5.61,9.65c0,1.4,.46,2.67,1.37,3.82,.4,.45,.71,.75,.93,.89,1.02,.77,2.12,1.16,3.32,1.16,1.47,0,2.76-.55,3.9-1.66,.45-.48,.77-.89,.95-1.23,.53-.95,.79-1.94,.79-2.95v-.06c0-1.48-.51-2.81-1.52-3.99-.44-.46-.73-.73-.89-.79-.22-.18-.42-.32-.62-.42-.84-.45-1.7-.68-2.6-.68-1.36,0-2.61,.51-3.74,1.52-.4,.4-.65,.69-.75,.89-.75,1.04-1.12,2.21-1.12,3.51Zm10.3-17.19l-7.39,4.53-.02-.02-1.93-3.12v-.04l7.39-4.51,1.95,3.16Z" />
                    <path class="cls-1"
                        d="M402.78,527.84h.17c3.32,0,5.7,1.25,7.14,3.76,.5,.99,.75,2.15,.75,3.49v11.17l-.04,.06h-3.63l-.04-.06v-11.21c0-1.58-.66-2.62-1.99-3.12-.55-.24-1.26-.37-2.12-.37h-.31c-1.57,0-2.68,.24-3.34,.73-.85,.51-1.27,1.47-1.27,2.86v11.11l-.06,.06h-3.61l-.06-.06v-18.27l.06-.06h3.61l.06,.06v1.04h.02c.66-.36,1.52-.69,2.58-1,.55-.13,1.24-.19,2.06-.19Z" />
                    <path class="cls-1"
                        d="M441.54,527.57c1.86,0,3.54,.46,5.02,1.37,.4,.23,.88,.6,1.45,1.12,.48,.48,.78,.8,.91,.98,.31,.4,.58,.79,.83,1.18,.88,1.54,1.31,3.21,1.31,5,0,2.12-.66,4.08-1.97,5.88-.17,.24-.5,.63-1,1.16l-.35,.29c-1.8,1.5-3.81,2.26-6.04,2.26-1.62,0-3.09-.46-4.4-1.39-.24-.17-.58-.45-1-.85l-.19-.21v10.28h-3.7l-.02-.02v-26.68l.02-.02h3.7v2.03c.46-.49,.75-.76,.87-.83,.39-.3,.72-.52,1-.67,.4-.22,.8-.39,1.2-.5,.3-.09,.81-.2,1.54-.33,.23-.01,.51-.03,.83-.04Zm-5.44,9.24v.77c0,.36,.1,.88,.29,1.56,.15,.42,.32,.8,.5,1.14,.19,.28,.47,.63,.83,1.04,.4,.4,.67,.64,.83,.73,.31,.21,.58,.37,.81,.5,.81,.35,1.54,.52,2.18,.52h.25c1.14,0,2.22-.39,3.24-1.16,.18-.13,.44-.37,.77-.71,.62-.72,1.04-1.47,1.25-2.24,.18-.59,.27-1.19,.27-1.79,0-1.47-.48-2.78-1.45-3.94-.41-.44-.66-.68-.75-.73-1.03-.81-2.17-1.22-3.41-1.22h-.15c-.68,0-1.43,.18-2.24,.54-.4,.18-.84,.49-1.33,.93-.46,.46-.75,.79-.85,.98-.19,.3-.35,.56-.46,.79-.12,.24-.24,.57-.39,.96-.13,.59-.19,1.03-.19,1.31Z" />
                    <path class="cls-1"
                        d="M467.05,527.55c2.15,0,3.99,.82,5.52,2.45v-2.12l.06-.04h3.65l.04,.04v18.4l-.04,.04h-3.65l-.06-.04v-1.87c-1.44,1.58-3.29,2.37-5.56,2.37h-.02c-2.82,0-5.21-1.14-7.18-3.41-1.47-1.84-2.2-3.9-2.2-6.19v-.02c0-2.83,1.09-5.27,3.28-7.33,1.81-1.52,3.87-2.28,6.15-2.28Zm-5.71,9.61c0,2.03,.87,3.7,2.62,5,.98,.59,1.9,.89,2.78,.89h.42c1.23,0,2.43-.5,3.59-1.5,1.21-1.23,1.81-2.69,1.81-4.36v-.02c0-2.06-.87-3.72-2.62-4.98-.96-.59-1.92-.89-2.86-.89h-.31c-1.54,0-2.94,.71-4.19,2.14-.84,1.18-1.25,2.42-1.25,3.72Z" />
                    <path class="cls-1"
                        d="M493.18,527.73h.48c1.27,0,2.59,.37,3.95,1.12v.02c-.54,2.44-.84,3.72-.89,3.84-1.23-.81-2.33-1.21-3.28-1.21h-.31c-1.24,0-2.32,.46-3.26,1.37-.71,.86-1.06,2.5-1.06,4.9v8.49l-.04,.06h-3.61l-.06-.06v-18.11l.06-.04h3.61l.04,.04v1.39c1.41-1.2,2.87-1.79,4.36-1.79Z" />
                    <path class="cls-1"
                        d="M512.47,527.55c2.15,0,3.99,.82,5.52,2.45v-2.12l.06-.04h3.65l.04,.04v18.4l-.04,.04h-3.65l-.06-.04v-1.87c-1.44,1.58-3.29,2.37-5.56,2.37h-.02c-2.82,0-5.21-1.14-7.18-3.41-1.47-1.84-2.2-3.9-2.2-6.19v-.02c0-2.83,1.09-5.27,3.28-7.33,1.81-1.52,3.87-2.28,6.15-2.28Zm-5.71,9.61c0,2.03,.87,3.7,2.62,5,.98,.59,1.9,.89,2.78,.89h.42c1.23,0,2.43-.5,3.59-1.5,1.21-1.23,1.81-2.69,1.81-4.36v-.02c0-2.06-.87-3.72-2.62-4.98-.96-.59-1.92-.89-2.86-.89h-.31c-1.54,0-2.94,.71-4.19,2.14-.84,1.18-1.25,2.42-1.25,3.72Z" />
                    <path class="cls-1"
                        d="M551.36,527.73h.48c1.27,0,2.59,.37,3.95,1.12v.02c-.54,2.44-.84,3.72-.89,3.84-1.23-.81-2.33-1.21-3.28-1.21h-.31c-1.24,0-2.32,.46-3.26,1.37-.71,.86-1.06,2.5-1.06,4.9v8.49l-.04,.06h-3.61l-.06-.06v-18.11l.06-.04h3.61l.04,.04v1.39c1.41-1.2,2.87-1.79,4.36-1.79Z" />
                    <path class="cls-1"
                        d="M569.29,527.55h.56c1.88,0,3.68,.75,5.42,2.26,.85,.84,1.43,1.56,1.75,2.16,.94,1.66,1.41,3.4,1.41,5.21v.58c0,.36-.03,.54-.08,.54h-13.81c.29,1.38,.78,2.4,1.47,3.09,1.04,1.12,2.22,1.68,3.55,1.68,1.67,0,3.07-.84,4.21-2.53,.22-.42,.35-.64,.39-.66,2.21,1,3.33,1.52,3.36,1.54-.18,.45-.58,1.12-1.22,2.03-1.89,2.22-4.12,3.34-6.69,3.34h-.08c-2.65,0-4.93-1.18-6.83-3.53-1.31-1.84-1.97-3.85-1.97-6.04v-.08c0-3.01,1.15-5.56,3.45-7.64,1.7-1.3,3.4-1.95,5.11-1.95Zm-4.4,7.23h9.36v-.02c-.22-.66-.72-1.4-1.5-2.24-.98-.84-2.04-1.25-3.2-1.25-1.76,0-3.21,.93-4.34,2.8l-.31,.71Z" />
                    <path class="cls-1"
                        d="M592.59,526.78c2.35,0,4.35,.73,6,2.2,.37,.36,.64,.64,.79,.85l.23,.37s-.37,.26-1.04,.66c-.66,.4-1.36,.84-2.1,1.33-.23-.28-.46-.51-.69-.68-.86-.66-1.91-.98-3.14-.98h-.08c-1.35,0-2.43,.32-3.24,.96-.45,.39-.67,.8-.67,1.25,0,.28,.12,.5,.37,.66,.24,.21,.72,.43,1.43,.68,.98,.32,2.49,.66,4.55,1.02,.67,.15,1.24,.33,1.72,.54,.45,.18,.9,.42,1.35,.73,.21,.14,.5,.4,.87,.77,.94,1.03,1.41,2.19,1.41,3.47v.06c0,1.31-.49,2.54-1.47,3.68-.41,.42-.71,.69-.89,.79-.51,.36-.94,.61-1.27,.75-1.31,.6-2.71,.91-4.19,.91h-.13c-1.93,0-3.69-.51-5.29-1.52-.35-.23-.72-.53-1.12-.91-.37-.36-.63-.64-.77-.85-.26-.32-.48-.66-.67-1l3.22-1.85h.02l.15,.27c.14,.22,.37,.48,.67,.77,.58,.54,1.3,.93,2.16,1.16,.57,.13,1.13,.19,1.7,.19,1.13,0,2.14-.25,3.03-.75,.17-.09,.37-.25,.62-.48,.33-.4,.5-.8,.5-1.2,0-.71-.55-1.27-1.64-1.68-.36-.13-1.02-.27-1.99-.42-2.07-.4-3.61-.82-4.63-1.25-.44-.18-.87-.41-1.29-.69-.98-.63-1.62-1.43-1.93-2.41-.15-.44-.23-.9-.23-1.39v-.12c0-1.22,.46-2.37,1.37-3.43,.39-.4,.66-.66,.83-.77,.44-.32,.85-.58,1.23-.77,1.29-.6,2.71-.91,4.26-.91Z" />
                    <path class="cls-1"
                        d="M608.28,518.08h3.7l.02,.02v9.72h4.78l.02,.02v3.7l-.02,.02h-4.78v9.32c0,.72,.24,1.2,.73,1.45,.33,.18,.68,.27,1.04,.27,.5,0,1.22-.17,2.14-.5l.15-.08,1.39,3.49c-.31,.13-.81,.3-1.5,.5-.82,.21-1.54,.31-2.16,.31h-.04c-1.22,0-2.37-.37-3.43-1.12-.18-.13-.42-.33-.71-.62l-.33-.42c-.21-.27-.37-.53-.48-.79-.35-.78-.52-1.57-.52-2.35v-9.45h-2.74l-.02-.02v-3.7l.02-.02h2.74v-9.74Z" />
                    <path class="cls-1"
                        d="M632.89,527.55c2.15,0,3.99,.82,5.52,2.45v-2.12l.06-.04h3.65l.04,.04v18.4l-.04,.04h-3.65l-.06-.04v-1.87c-1.44,1.58-3.29,2.37-5.56,2.37h-.02c-2.82,0-5.21-1.14-7.18-3.41-1.47-1.84-2.2-3.9-2.2-6.19v-.02c0-2.83,1.09-5.27,3.28-7.33,1.81-1.52,3.87-2.28,6.15-2.28Zm-5.71,9.61c0,2.03,.87,3.7,2.62,5,.98,.59,1.9,.89,2.78,.89h.42c1.23,0,2.43-.5,3.59-1.5,1.21-1.23,1.81-2.69,1.81-4.36v-.02c0-2.06-.87-3.72-2.62-4.98-.96-.59-1.92-.89-2.86-.89h-.31c-1.54,0-2.94,.71-4.19,2.14-.84,1.18-1.25,2.42-1.25,3.72Z" />
                    <path class="cls-1"
                        d="M658.92,546.32h-.17c-3.32,0-5.7-1.25-7.14-3.76-.5-.99-.75-2.15-.75-3.49v-11.17l.06-.06h3.61l.06,.06v11.21c0,1.58,.66,2.62,1.97,3.12,.55,.25,1.26,.37,2.12,.37h.31c1.57,0,2.68-.24,3.34-.73,.86-.51,1.29-1.47,1.29-2.86v-11.11l.04-.06h3.63l.04,.06v18.27l-.04,.06h-3.63l-.04-.06v-1.23h-.04c-.66,.49-1.51,.89-2.57,1.2-.57,.13-1.26,.19-2.08,.19Z" />
                    <path class="cls-1"
                        d="M684.22,527.73h.48c1.27,0,2.59,.37,3.95,1.12v.02c-.54,2.44-.84,3.72-.89,3.84-1.23-.81-2.33-1.21-3.28-1.21h-.31c-1.24,0-2.32,.46-3.26,1.37-.71,.86-1.06,2.5-1.06,4.9v8.49l-.04,.06h-3.61l-.06-.06v-18.11l.06-.04h3.61l.04,.04v1.39c1.41-1.2,2.87-1.79,4.36-1.79Z" />
                    <path class="cls-1"
                        d="M703.51,527.55c2.15,0,3.99,.82,5.52,2.45v-2.12l.06-.04h3.65l.04,.04v18.4l-.04,.04h-3.65l-.06-.04v-1.87c-1.44,1.58-3.29,2.37-5.56,2.37h-.02c-2.82,0-5.21-1.14-7.18-3.41-1.47-1.84-2.2-3.9-2.2-6.19v-.02c0-2.83,1.09-5.27,3.28-7.33,1.81-1.52,3.87-2.28,6.15-2.28Zm-5.71,9.61c0,2.03,.87,3.7,2.62,5,.98,.59,1.9,.89,2.78,.89h.42c1.23,0,2.43-.5,3.59-1.5,1.21-1.23,1.81-2.69,1.81-4.36v-.02c0-2.06-.87-3.72-2.62-4.98-.96-.59-1.92-.89-2.86-.89h-.31c-1.54,0-2.94,.71-4.19,2.14-.84,1.18-1.25,2.42-1.25,3.72Z" />
                    <path class="cls-1"
                        d="M729.97,527.84h.17c3.32,0,5.7,1.25,7.14,3.76,.5,.99,.75,2.15,.75,3.49v11.17l-.04,.06h-3.63l-.04-.06v-11.21c0-1.58-.66-2.62-1.99-3.12-.55-.24-1.26-.37-2.12-.37h-.31c-1.57,0-2.68,.24-3.34,.73-.85,.51-1.27,1.47-1.27,2.86v11.11l-.06,.06h-3.61l-.06-.06v-18.27l.06-.06h3.61l.06,.06v1.04h.02c.66-.36,1.52-.69,2.58-1,.55-.13,1.24-.19,2.06-.19Z" />
                    <path class="cls-1"
                        d="M747.24,518.08h3.7l.02,.02v9.72h4.78l.02,.02v3.7l-.02,.02h-4.78v9.32c0,.72,.24,1.2,.73,1.45,.33,.18,.68,.27,1.04,.27,.5,0,1.22-.17,2.14-.5l.15-.08,1.39,3.49c-.31,.13-.81,.3-1.5,.5-.82,.21-1.54,.31-2.16,.31h-.04c-1.22,0-2.37-.37-3.43-1.12-.18-.13-.42-.33-.71-.62l-.33-.42c-.21-.27-.37-.53-.48-.79-.35-.78-.52-1.57-.52-2.35v-9.45h-2.74l-.02-.02v-3.7l.02-.02h2.74v-9.74Z" />
                    <path class="cls-1"
                        d="M770.5,527.55h.56c1.88,0,3.68,.75,5.42,2.26,.85,.84,1.43,1.56,1.75,2.16,.94,1.66,1.41,3.4,1.41,5.21v.58c0,.36-.03,.54-.08,.54h-13.81c.29,1.38,.78,2.4,1.47,3.09,1.04,1.12,2.22,1.68,3.55,1.68,1.67,0,3.07-.84,4.21-2.53,.22-.42,.35-.64,.39-.66,2.21,1,3.33,1.52,3.36,1.54-.18,.45-.58,1.12-1.22,2.03-1.89,2.22-4.12,3.34-6.69,3.34h-.08c-2.65,0-4.93-1.18-6.83-3.53-1.31-1.84-1.97-3.85-1.97-6.04v-.08c0-3.01,1.15-5.56,3.45-7.64,1.7-1.3,3.4-1.95,5.11-1.95Zm-4.4,7.23h9.36v-.02c-.22-.66-.72-1.4-1.5-2.24-.98-.84-2.04-1.25-3.2-1.25-1.76,0-3.21,.93-4.34,2.8l-.31,.71Z" />
                    <path class="cls-1"
                        d="M793.79,526.78c2.35,0,4.35,.73,6,2.2,.37,.36,.64,.64,.79,.85l.23,.37s-.37,.26-1.04,.66c-.66,.4-1.36,.84-2.1,1.33-.23-.28-.46-.51-.69-.68-.86-.66-1.91-.98-3.14-.98h-.08c-1.35,0-2.43,.32-3.24,.96-.45,.39-.67,.8-.67,1.25,0,.28,.12,.5,.37,.66,.24,.21,.72,.43,1.43,.68,.98,.32,2.49,.66,4.55,1.02,.67,.15,1.24,.33,1.72,.54,.45,.18,.9,.42,1.35,.73,.21,.14,.5,.4,.87,.77,.94,1.03,1.41,2.19,1.41,3.47v.06c0,1.31-.49,2.54-1.47,3.68-.41,.42-.71,.69-.89,.79-.51,.36-.94,.61-1.27,.75-1.31,.6-2.71,.91-4.19,.91h-.13c-1.93,0-3.69-.51-5.29-1.52-.35-.23-.72-.53-1.12-.91-.37-.36-.63-.64-.77-.85-.26-.32-.48-.66-.67-1l3.22-1.85h.02l.15,.27c.14,.22,.37,.48,.67,.77,.58,.54,1.3,.93,2.16,1.16,.57,.13,1.13,.19,1.7,.19,1.13,0,2.14-.25,3.03-.75,.17-.09,.37-.25,.62-.48,.33-.4,.5-.8,.5-1.2,0-.71-.55-1.27-1.64-1.68-.36-.13-1.02-.27-1.99-.42-2.07-.4-3.61-.82-4.63-1.25-.44-.18-.87-.41-1.29-.69-.98-.63-1.62-1.43-1.93-2.41-.15-.44-.23-.9-.23-1.39v-.12c0-1.22,.46-2.37,1.37-3.43,.39-.4,.66-.66,.83-.77,.44-.32,.85-.58,1.23-.77,1.29-.6,2.71-.91,4.26-.91Z" />
                </g>
                <g>
                    <path class="cls-1"
                        d="M437.12,426.67c0-4.15,.85-8.11,2.54-11.9s4.13-7.13,7.31-10.03c3.18-2.9,7.08-5.22,11.69-6.95s9.86-2.59,15.74-2.59,11.1,.87,15.79,2.62c4.68,1.75,8.66,4.14,11.92,7.18,3.27,3.04,5.77,6.62,7.52,10.73,1.74,4.11,2.62,8.52,2.62,13.22,0,.59,0,1.22-.03,1.89s-.06,1.29-.13,1.84h-57.86c.66,1.83,1.72,3.51,3.19,5.03,1.47,1.52,3.31,2.83,5.52,3.94,2.21,1.11,4.77,1.96,7.67,2.57s6.12,.91,9.64,.91,7.03-.37,10.53-1.12c3.49-.74,6.83-1.68,10.01-2.83l5.19,11.72c-2.01,.93-4.04,1.75-6.09,2.46-2.06,.71-4.2,1.3-6.43,1.76s-4.56,.82-7,1.06-5,.36-7.7,.36c-6.88,0-12.91-.83-18.09-2.49-5.18-1.66-9.52-3.92-13.01-6.79-3.49-2.87-6.12-6.24-7.88-10.11-1.76-3.87-2.64-8.04-2.64-12.5Zm58.85-5.96c-.55-1.69-1.41-3.27-2.57-4.74-1.16-1.47-2.6-2.75-4.33-3.84s-3.73-1.94-6.01-2.57-4.79-.93-7.52-.93c-2.9,0-5.55,.33-7.93,.99-2.38,.66-4.48,1.54-6.27,2.64-1.8,1.11-3.29,2.38-4.48,3.84-1.19,1.45-2.07,2.99-2.62,4.61h41.74Z" />
                    <path class="cls-1"
                        d="M104.3,387.94c-1.52,0-2.9-.21-4.12-.65-1.23-.43-2.27-1.02-3.14-1.76-.86-.74-1.53-1.61-2-2.59-.47-.99-.7-2.03-.7-3.14s.23-2.2,.7-3.19c.47-.98,1.13-1.84,2-2.57,.86-.73,1.91-1.3,3.14-1.74,1.23-.43,2.6-.65,4.12-.65s2.95,.22,4.17,.65c1.23,.43,2.27,1.01,3.14,1.74,.86,.73,1.53,1.58,2,2.57,.47,.99,.7,2.05,.7,3.19s-.23,2.15-.7,3.14c-.47,.99-1.13,1.85-2,2.59-.86,.74-1.91,1.33-3.14,1.76-1.23,.43-2.62,.65-4.17,.65Zm-7.67,8.35h15.35v61.18h-15.35v-61.18Z" />
                    <path class="cls-1"
                        d="M123.18,396.24h17.78l15.92,36.81,4.15,10.32,4.15-10.32,15.92-36.81h17.78l-28.98,61.23h-17.73l-28.98-61.23Z" />
                    <path class="cls-1"
                        d="M206.7,426.67c0-4.15,.85-8.11,2.54-11.9,1.69-3.79,4.13-7.13,7.31-10.03,3.18-2.9,7.08-5.22,11.69-6.95,4.61-1.73,9.86-2.59,15.74-2.59s11.1,.87,15.79,2.62c4.68,1.75,8.66,4.14,11.93,7.18,3.27,3.04,5.77,6.62,7.52,10.73,1.75,4.11,2.62,8.52,2.62,13.22,0,.59,0,1.22-.03,1.89-.02,.67-.06,1.29-.13,1.84h-57.86c.66,1.83,1.72,3.51,3.19,5.03,1.47,1.52,3.31,2.83,5.52,3.94,2.21,1.11,4.77,1.96,7.67,2.57,2.9,.6,6.12,.91,9.64,.91s7.03-.37,10.53-1.12c3.49-.74,6.83-1.68,10.01-2.83l5.19,11.72c-2,.93-4.04,1.75-6.09,2.46-2.06,.71-4.2,1.3-6.43,1.76s-4.56,.82-7,1.06-5,.36-7.7,.36c-6.88,0-12.91-.83-18.1-2.49-5.18-1.66-9.52-3.92-13.01-6.79-3.49-2.87-6.12-6.24-7.88-10.11-1.76-3.87-2.64-8.04-2.64-12.5Zm58.85-5.96c-.55-1.69-1.41-3.27-2.57-4.74-1.16-1.47-2.6-2.75-4.33-3.84-1.73-1.09-3.73-1.94-6.01-2.57s-4.79-.93-7.52-.93c-2.9,0-5.55,.33-7.93,.99-2.38,.66-4.48,1.54-6.27,2.64-1.8,1.11-3.29,2.38-4.48,3.84-1.19,1.45-2.07,2.99-2.62,4.61h41.74Z" />
                    <path class="cls-1"
                        d="M298.32,396.29h15.35v8.81c3.39-2.52,6.96-4.7,10.73-6.53,3.77-1.83,7.52-3.23,11.25-4.2l4.51,14.05c-5.91,.59-11.1,1.91-15.58,3.97-4.48,2.06-8.11,4.95-10.91,8.68v36.4h-15.35v-61.18Z" />
                    <path class="cls-1"
                        d="M361.16,467.84c1.94,.69,3.91,1.27,5.91,1.74,2,.47,3.95,.85,5.83,1.14,1.88,.29,3.69,.5,5.42,.62,1.73,.12,3.27,.18,4.61,.18,4.08,0,7.63-.49,10.65-1.48,3.02-.99,5.55-2.31,7.57-3.97,2.02-1.66,3.53-3.59,4.54-5.78,1-2.2,1.5-4.52,1.5-6.97v-2.64c-1.31,.9-2.85,1.76-4.61,2.59-1.76,.83-3.7,1.56-5.81,2.18-2.11,.62-4.35,1.12-6.71,1.5-2.37,.38-4.81,.57-7.34,.57-5.01,0-9.64-.75-13.9-2.25-4.25-1.5-7.93-3.61-11.04-6.33-3.11-2.71-5.54-5.97-7.28-9.77-1.75-3.8-2.62-8.02-2.62-12.65s.92-9.03,2.75-12.88c1.83-3.85,4.36-7.15,7.6-9.88,3.23-2.73,7.06-4.84,11.48-6.33,4.42-1.49,9.23-2.23,14.41-2.23,2.21,0,4.41,.14,6.58,.42,2.18,.28,4.26,.66,6.25,1.14,1.99,.48,3.85,1.06,5.6,1.74,1.75,.67,3.29,1.41,4.64,2.2v-4.41h15.35v54.18c0,5.57-.85,10.49-2.54,14.78-1.69,4.29-4.17,7.89-7.44,10.81-3.27,2.92-7.32,5.13-12.16,6.64-4.84,1.5-10.39,2.25-16.64,2.25-2.25,0-4.58-.1-7-.29-2.42-.19-4.85-.47-7.28-.83-2.44-.36-4.84-.8-7.21-1.3-2.37-.5-4.64-1.08-6.82-1.74l5.7-12.96Zm2.85-41.48c0,2.46,.49,4.76,1.48,6.92,.99,2.16,2.39,4.04,4.23,5.65,1.83,1.61,4.04,2.87,6.64,3.79,2.59,.92,5.51,1.37,8.76,1.37,2.11,0,4.21-.2,6.3-.6,2.09-.4,4.1-.96,6.01-1.68s3.72-1.61,5.39-2.64c1.68-1.04,3.14-2.19,4.38-3.47v-20.17c-1.56-1.24-3.2-2.3-4.93-3.16-1.73-.86-3.49-1.57-5.29-2.13-1.8-.55-3.61-.96-5.44-1.22-1.83-.26-3.61-.39-5.34-.39-3.53,0-6.66,.47-9.41,1.4s-5.06,2.2-6.95,3.81c-1.88,1.61-3.33,3.48-4.33,5.63-1,2.14-1.5,4.44-1.5,6.9Z" />
                    <g>
                        <path class="cls-1"
                            d="M78.56,399.89c-2.06-4.96-5.19-9.18-9.38-12.65-4.2-3.47-9.5-6.14-15.89-8.01-6.4-1.87-13.93-2.8-22.61-2.8H.97v38.55H17.4v-24.24h17.32c4.91,0,9.21,.61,12.91,1.82,3.7,1.21,6.78,2.93,9.25,5.16,2.47,2.23,4.33,4.94,5.57,8.14,1.24,3.2,1.87,6.78,1.87,10.76s-.62,7.71-1.87,10.99c-1.24,3.29-3.1,6.08-5.57,8.4-2.47,2.32-5.56,4.11-9.25,5.37-3.7,1.26-8,1.89-12.91,1.89H17.4v-.03H.97v14.23l29.81,.05c8.68,0,16.21-1.03,22.61-3.08,6.39-2.06,11.68-4.91,15.87-8.55,4.18-3.65,7.29-7.97,9.33-12.96,2.04-4.99,3.06-10.43,3.06-16.31,0-6.19-1.03-11.76-3.08-16.72Z" />
                        <circle class="cls-1" cx="9.9" cy="429.74" r="9.9" />
                    </g>
                </g>
                <g>
                    <path class="cls-1"
                        d="M518.78,286.87H165.11c-7.04,0-12.78-6.68-12.78-14.89s5.74-14.89,12.78-14.89H504.49c.49,1.63,1.04,3.32,1.66,5.09,.82,2.3,1.7,4.52,2.6,6.58,2.74,6.39,6.11,12.47,10.03,18.11Z" />
                    <g>
                        <polygon class="cls-2"
                            points="601.93 149.57 601.92 149.56 601.92 149.28 601.93 149.57" />
                        <path class="cls-1"
                            d="M675.35,195.37c-.19-11.82-.4-22.39-.65-32.3-.08-2.9-.1-5.83-.12-8.65v-.25c-.05-9.79-.09-19.04-2.29-27.91-6.6-26.58-21.97-45.04-46.98-56.44-12.94-5.89-27.72-7.91-45.2-6.16-14.84,1.49-27.47,6.07-38.6,14-1.15,.82-2.33,1.71-3.51,2.66-1,.79-2,1.63-3,2.51l-.21,.19c-2.97,2.63-5.89,5.62-8.69,8.89-.85,.99-1.67,2-2.52,3.09-1.35,1.71-2.5,3.28-3.54,4.83-1,1.44-1.96,2.96-2.97,4.68-6.69,11.4-10.06,23.67-10.31,37.52-.22,12.64,.07,25.61,.35,38.16,.12,5.1,.22,10.21,.31,15.31,.07,4.39,.07,8.81,.06,12.62v.45c0,7.81,0,15.89,.52,23.67,.1,1.61,.21,3.02,.33,4.33l.02,.27c.07,.76,.15,1.51,.25,2.27,.07,.64,.14,1.21,.22,1.79,.2,1.47,.43,2.96,.74,4.62,.41,2.16,.85,4.13,1.33,6,.07,.26,.14,.53,.22,.79,.41,1.53,.87,3.04,1.35,4.5t0,.02c.48,1.48,1.02,2.94,1.63,4.48,.12,.31,.24,.62,.37,.93,.73,1.74,1.51,3.45,2.32,5.04,2.53,5.06,5.64,9.85,9.26,14.27,1.21,1.46,2.37,2.77,3.52,3.99,.41,.43,.83,.88,1.28,1.33,.78,.79,1.62,1.62,2.56,2.5,.72,.68,1.47,1.35,2.23,2,1.77,1.56,3.65,3.06,5.61,4.5,2.23,1.66,4.58,3.25,7.02,4.76,15.72,9.45,33.77,12.85,55.13,10.37,25.02-2.9,44.16-14.5,58.5-35.46,9.41-13.77,13.93-28.82,13.82-46.01-.07-10.93-.19-22.1-.37-34.16Zm-63.86-9.53c0,7.08-2.21,12.63-6.58,16.49-1.13,1-2.31,1.82-3.6,2.53-1.18,.63-2.26,1.12-3.26,1.49-.73,.27-1.48,.51-2.25,.72l-.19,.05c-1.57,.38-3.13,.57-4.67,.57-1.4,0-2.79-.16-4.15-.48-2.28-.52-4.46-1.48-6.47-2.86-.11-.08-.22-.15-.33-.21l-.27-.17c-2.12-1.41-3.89-3.18-5.26-5.27-1.28-1.9-2.23-4.15-2.81-6.64-.39-1.69-.51-3.11-.57-3.96l-.02-.16c-.06-.87-.1-1.78-.12-3.05l-.22-14.55c-.23-15.06-.46-31.06-.62-46.67l-.03-2.81c-.01-1.38,.1-2.81,.34-4.22,.11-.56,.21-1.07,.33-1.57,.47-1.91,1.16-3.66,2.06-5.26,.15-.27,.33-.58,.54-.88,.75-1.19,1.59-2.25,2.5-3.15,3.59-3.64,8.58-5.68,14.05-5.72,11.28-.05,20.33,9.03,20.52,20.73,.21,12.75,.73,25.61,.73,38.43,0,1.55,.01,3.11,.02,4.66,.03,1.5,.06,3.07,.08,4.64l.24,16.59c0,.14,.01,.28,.01,.42v.31Z" />
                    </g>
                    <path class="cls-1"
                        d="M593.15,62.79c-.56-2.7-.18-5.3,.83-7.99s2.78-5.36,4.49-7.77c3.87-5.48,8.31-10.61,10.81-16.92,2.69-6.79,1.71-14.3-2.6-20.21-4.32-5.94-11.37-10.26-18.91-9.88-16.45,.85-23.71,18.07-33.16,28.79-4.66,5.29-10.74,10.35-18.2,10.11-3.9-.13-7.57-1.75-11.01-3.47-3.73-1.86-7.39-3.93-11.35-5.28-13.45-4.58-29.69,.41-38.54,11.44-1.14,1.42-2.18,2.9-3.09,4.49-1.6,2.8,2.72,5.32,4.32,2.52,6.4-11.23,20.57-17.36,33.17-14.43,7.64,1.77,13.88,7.05,21.46,8.99,7.81,2,15.18-.58,21.29-5.52s9.96-11.06,14.34-17.08c4.02-5.53,8.71-11.43,15.17-14.2s12.8-1.21,17.66,3.27,7.19,10.74,5.33,17.03c-3.51,11.92-16.56,19.64-17.27,32.7-.09,1.58,.09,3.17,.41,4.72,.27,1.32,1.83,2.09,3.08,1.75,1.37-.38,2.02-1.75,1.75-3.08h0Z" />
                    <path class="cls-1"
                        d="M421.93,37.37l-4.09-.38V16.91c0-5.31-4.31-9.62-9.62-9.62h-5.65c-5.3,0-9.62,4.31-9.62,9.62v19.69l-4.22,.26c-106.24,6.42-192.08,90.16-201.6,195.68H499c-.52-7.97-.52-16.1-.52-23.97v-.46c.01-3.77,.01-8.15-.06-12.45-.09-5.08-.19-10.17-.31-15.25-.28-12.65-.57-25.71-.35-38.54,.28-15.44,4.06-29.15,11.55-41.92,1.12-1.91,2.2-3.61,3.28-5.18,1.14-1.7,2.43-3.46,3.91-5.33,.92-1.18,1.83-2.29,2.77-3.39,2.87-3.36,5.88-6.46,8.95-9.23-30.3-21.74-66.63-35.81-106.29-39.45Zm-84.31,45.73c-.8,1.12-2.98,1.41-4.61,1.84-25.28,6.68-46.07,19.93-62.72,39.47-1.79,2.1-5.14,4.23-7.72,4.17-5.46-.13-6.82-6.31-2.65-11.44,12.73-15.67,28.4-27.87,47.12-36.19,7.13-3.17,14.7-5.42,22.1-8.01,1.59-.56,3.31-.76,6.27-1.4,1.3,1.43,3.86,3.08,4.41,5.2,.48,1.88-.89,4.55-2.2,6.37Z" />
                </g>
            </g>
        </g>
    </g>
</svg>